%TF.GenerationSoftware,KiCad,Pcbnew,(6.0.7)*%
%TF.CreationDate,2022-09-25T11:51:51-07:00*%
%TF.ProjectId,ModularKeyboard_Main,4d6f6475-6c61-4724-9b65-79626f617264,0.1*%
%TF.SameCoordinates,Original*%
%TF.FileFunction,Legend,Bot*%
%TF.FilePolarity,Positive*%
%FSLAX46Y46*%
G04 Gerber Fmt 4.6, Leading zero omitted, Abs format (unit mm)*
G04 Created by KiCad (PCBNEW (6.0.7)) date 2022-09-25 11:51:51*
%MOMM*%
%LPD*%
G01*
G04 APERTURE LIST*
%ADD10C,0.150000*%
%ADD11C,5.000000*%
%ADD12C,0.062500*%
%ADD13C,0.120000*%
%ADD14C,0.152400*%
%ADD15C,0.127000*%
%ADD16C,0.300000*%
G04 APERTURE END LIST*
D10*
X178322619Y-64942380D02*
X178322619Y-63942380D01*
X178322619Y-64323333D02*
X178227380Y-64275714D01*
X178036904Y-64275714D01*
X177941666Y-64323333D01*
X177894047Y-64370952D01*
X177846428Y-64466190D01*
X177846428Y-64751904D01*
X177894047Y-64847142D01*
X177941666Y-64894761D01*
X178036904Y-64942380D01*
X178227380Y-64942380D01*
X178322619Y-64894761D01*
X177465476Y-64894761D02*
X177370238Y-64942380D01*
X177179761Y-64942380D01*
X177084523Y-64894761D01*
X177036904Y-64799523D01*
X177036904Y-64751904D01*
X177084523Y-64656666D01*
X177179761Y-64609047D01*
X177322619Y-64609047D01*
X177417857Y-64561428D01*
X177465476Y-64466190D01*
X177465476Y-64418571D01*
X177417857Y-64323333D01*
X177322619Y-64275714D01*
X177179761Y-64275714D01*
X177084523Y-64323333D01*
X176179761Y-64894761D02*
X176275000Y-64942380D01*
X176465476Y-64942380D01*
X176560714Y-64894761D01*
X176608333Y-64847142D01*
X176655952Y-64751904D01*
X176655952Y-64466190D01*
X176608333Y-64370952D01*
X176560714Y-64323333D01*
X176465476Y-64275714D01*
X176275000Y-64275714D01*
X176179761Y-64323333D01*
X178703571Y-65885714D02*
X178465476Y-66552380D01*
X178227380Y-65885714D01*
X177655952Y-65552380D02*
X177560714Y-65552380D01*
X177465476Y-65600000D01*
X177417857Y-65647619D01*
X177370238Y-65742857D01*
X177322619Y-65933333D01*
X177322619Y-66171428D01*
X177370238Y-66361904D01*
X177417857Y-66457142D01*
X177465476Y-66504761D01*
X177560714Y-66552380D01*
X177655952Y-66552380D01*
X177751190Y-66504761D01*
X177798809Y-66457142D01*
X177846428Y-66361904D01*
X177894047Y-66171428D01*
X177894047Y-65933333D01*
X177846428Y-65742857D01*
X177798809Y-65647619D01*
X177751190Y-65600000D01*
X177655952Y-65552380D01*
X176894047Y-66457142D02*
X176846428Y-66504761D01*
X176894047Y-66552380D01*
X176941666Y-66504761D01*
X176894047Y-66457142D01*
X176894047Y-66552380D01*
X175894047Y-66552380D02*
X176465476Y-66552380D01*
X176179761Y-66552380D02*
X176179761Y-65552380D01*
X176275000Y-65695238D01*
X176370238Y-65790476D01*
X176465476Y-65838095D01*
X178941666Y-68162380D02*
X178751190Y-68162380D01*
X178655952Y-68114761D01*
X178608333Y-68067142D01*
X178513095Y-67924285D01*
X178465476Y-67733809D01*
X178465476Y-67352857D01*
X178513095Y-67257619D01*
X178560714Y-67210000D01*
X178655952Y-67162380D01*
X178846428Y-67162380D01*
X178941666Y-67210000D01*
X178989285Y-67257619D01*
X179036904Y-67352857D01*
X179036904Y-67590952D01*
X178989285Y-67686190D01*
X178941666Y-67733809D01*
X178846428Y-67781428D01*
X178655952Y-67781428D01*
X178560714Y-67733809D01*
X178513095Y-67686190D01*
X178465476Y-67590952D01*
X177322619Y-67114761D02*
X178179761Y-68400476D01*
X177036904Y-67257619D02*
X176989285Y-67210000D01*
X176894047Y-67162380D01*
X176655952Y-67162380D01*
X176560714Y-67210000D01*
X176513095Y-67257619D01*
X176465476Y-67352857D01*
X176465476Y-67448095D01*
X176513095Y-67590952D01*
X177084523Y-68162380D01*
X176465476Y-68162380D01*
X176084523Y-67257619D02*
X176036904Y-67210000D01*
X175941666Y-67162380D01*
X175703571Y-67162380D01*
X175608333Y-67210000D01*
X175560714Y-67257619D01*
X175513095Y-67352857D01*
X175513095Y-67448095D01*
X175560714Y-67590952D01*
X176132142Y-68162380D01*
X175513095Y-68162380D01*
D11*
X191185714Y-86280952D02*
X191185714Y-95804761D01*
X191185714Y-109138095D02*
X191185714Y-131995238D01*
X191185714Y-109138095D02*
X183566666Y-116757142D01*
X183566666Y-107233333D02*
X187376190Y-111042857D01*
X202614285Y-97709523D02*
X183566666Y-97709523D01*
X187376190Y-105328571D01*
X200709523Y-118661904D01*
X168328571Y-93900000D02*
X168328571Y-103423809D01*
X172138095Y-114852380D01*
X175947619Y-124376190D01*
X183566666Y-131995238D01*
X179757142Y-93900000D02*
X153090476Y-93900000D01*
X153090476Y-118661904D01*
X156900000Y-131995238D01*
X166423809Y-131995238D01*
D12*
%TO.C,RN4*%
X212413095Y-72127380D02*
X212294047Y-72044047D01*
X212413095Y-71984523D02*
X212163095Y-71984523D01*
X212163095Y-72079761D01*
X212175000Y-72103571D01*
X212186904Y-72115476D01*
X212210714Y-72127380D01*
X212246428Y-72127380D01*
X212270238Y-72115476D01*
X212282142Y-72103571D01*
X212294047Y-72079761D01*
X212294047Y-71984523D01*
X212413095Y-72234523D02*
X212163095Y-72234523D01*
X212413095Y-72377380D01*
X212163095Y-72377380D01*
X212246428Y-72603571D02*
X212413095Y-72603571D01*
X212151190Y-72544047D02*
X212329761Y-72484523D01*
X212329761Y-72639285D01*
%TO.C,C7*%
X145089285Y-57408333D02*
X145101190Y-57396428D01*
X145113095Y-57360714D01*
X145113095Y-57336904D01*
X145101190Y-57301190D01*
X145077380Y-57277380D01*
X145053571Y-57265476D01*
X145005952Y-57253571D01*
X144970238Y-57253571D01*
X144922619Y-57265476D01*
X144898809Y-57277380D01*
X144875000Y-57301190D01*
X144863095Y-57336904D01*
X144863095Y-57360714D01*
X144875000Y-57396428D01*
X144886904Y-57408333D01*
X144863095Y-57491666D02*
X144863095Y-57658333D01*
X145113095Y-57551190D01*
%TO.C,R5*%
X147413095Y-62758333D02*
X147294047Y-62675000D01*
X147413095Y-62615476D02*
X147163095Y-62615476D01*
X147163095Y-62710714D01*
X147175000Y-62734523D01*
X147186904Y-62746428D01*
X147210714Y-62758333D01*
X147246428Y-62758333D01*
X147270238Y-62746428D01*
X147282142Y-62734523D01*
X147294047Y-62710714D01*
X147294047Y-62615476D01*
X147163095Y-62984523D02*
X147163095Y-62865476D01*
X147282142Y-62853571D01*
X147270238Y-62865476D01*
X147258333Y-62889285D01*
X147258333Y-62948809D01*
X147270238Y-62972619D01*
X147282142Y-62984523D01*
X147305952Y-62996428D01*
X147365476Y-62996428D01*
X147389285Y-62984523D01*
X147401190Y-62972619D01*
X147413095Y-62948809D01*
X147413095Y-62889285D01*
X147401190Y-62865476D01*
X147389285Y-62853571D01*
%TO.C,U4*%
X165663095Y-64559523D02*
X165865476Y-64559523D01*
X165889285Y-64571428D01*
X165901190Y-64583333D01*
X165913095Y-64607142D01*
X165913095Y-64654761D01*
X165901190Y-64678571D01*
X165889285Y-64690476D01*
X165865476Y-64702380D01*
X165663095Y-64702380D01*
X165746428Y-64928571D02*
X165913095Y-64928571D01*
X165651190Y-64869047D02*
X165829761Y-64809523D01*
X165829761Y-64964285D01*
%TO.C,C8*%
X150841666Y-70489285D02*
X150853571Y-70501190D01*
X150889285Y-70513095D01*
X150913095Y-70513095D01*
X150948809Y-70501190D01*
X150972619Y-70477380D01*
X150984523Y-70453571D01*
X150996428Y-70405952D01*
X150996428Y-70370238D01*
X150984523Y-70322619D01*
X150972619Y-70298809D01*
X150948809Y-70275000D01*
X150913095Y-70263095D01*
X150889285Y-70263095D01*
X150853571Y-70275000D01*
X150841666Y-70286904D01*
X150698809Y-70370238D02*
X150722619Y-70358333D01*
X150734523Y-70346428D01*
X150746428Y-70322619D01*
X150746428Y-70310714D01*
X150734523Y-70286904D01*
X150722619Y-70275000D01*
X150698809Y-70263095D01*
X150651190Y-70263095D01*
X150627380Y-70275000D01*
X150615476Y-70286904D01*
X150603571Y-70310714D01*
X150603571Y-70322619D01*
X150615476Y-70346428D01*
X150627380Y-70358333D01*
X150651190Y-70370238D01*
X150698809Y-70370238D01*
X150722619Y-70382142D01*
X150734523Y-70394047D01*
X150746428Y-70417857D01*
X150746428Y-70465476D01*
X150734523Y-70489285D01*
X150722619Y-70501190D01*
X150698809Y-70513095D01*
X150651190Y-70513095D01*
X150627380Y-70501190D01*
X150615476Y-70489285D01*
X150603571Y-70465476D01*
X150603571Y-70417857D01*
X150615476Y-70394047D01*
X150627380Y-70382142D01*
X150651190Y-70370238D01*
%TO.C,C3*%
X155391666Y-55389285D02*
X155403571Y-55401190D01*
X155439285Y-55413095D01*
X155463095Y-55413095D01*
X155498809Y-55401190D01*
X155522619Y-55377380D01*
X155534523Y-55353571D01*
X155546428Y-55305952D01*
X155546428Y-55270238D01*
X155534523Y-55222619D01*
X155522619Y-55198809D01*
X155498809Y-55175000D01*
X155463095Y-55163095D01*
X155439285Y-55163095D01*
X155403571Y-55175000D01*
X155391666Y-55186904D01*
X155308333Y-55163095D02*
X155153571Y-55163095D01*
X155236904Y-55258333D01*
X155201190Y-55258333D01*
X155177380Y-55270238D01*
X155165476Y-55282142D01*
X155153571Y-55305952D01*
X155153571Y-55365476D01*
X155165476Y-55389285D01*
X155177380Y-55401190D01*
X155201190Y-55413095D01*
X155272619Y-55413095D01*
X155296428Y-55401190D01*
X155308333Y-55389285D01*
%TO.C,R1*%
X150841666Y-71513095D02*
X150925000Y-71394047D01*
X150984523Y-71513095D02*
X150984523Y-71263095D01*
X150889285Y-71263095D01*
X150865476Y-71275000D01*
X150853571Y-71286904D01*
X150841666Y-71310714D01*
X150841666Y-71346428D01*
X150853571Y-71370238D01*
X150865476Y-71382142D01*
X150889285Y-71394047D01*
X150984523Y-71394047D01*
X150603571Y-71513095D02*
X150746428Y-71513095D01*
X150675000Y-71513095D02*
X150675000Y-71263095D01*
X150698809Y-71298809D01*
X150722619Y-71322619D01*
X150746428Y-71334523D01*
%TO.C,C2*%
X147689285Y-66058333D02*
X147701190Y-66046428D01*
X147713095Y-66010714D01*
X147713095Y-65986904D01*
X147701190Y-65951190D01*
X147677380Y-65927380D01*
X147653571Y-65915476D01*
X147605952Y-65903571D01*
X147570238Y-65903571D01*
X147522619Y-65915476D01*
X147498809Y-65927380D01*
X147475000Y-65951190D01*
X147463095Y-65986904D01*
X147463095Y-66010714D01*
X147475000Y-66046428D01*
X147486904Y-66058333D01*
X147486904Y-66153571D02*
X147475000Y-66165476D01*
X147463095Y-66189285D01*
X147463095Y-66248809D01*
X147475000Y-66272619D01*
X147486904Y-66284523D01*
X147510714Y-66296428D01*
X147534523Y-66296428D01*
X147570238Y-66284523D01*
X147713095Y-66141666D01*
X147713095Y-66296428D01*
%TO.C,HSE1*%
X143213095Y-62227380D02*
X142963095Y-62227380D01*
X143082142Y-62227380D02*
X143082142Y-62370238D01*
X143213095Y-62370238D02*
X142963095Y-62370238D01*
X143201190Y-62477380D02*
X143213095Y-62513095D01*
X143213095Y-62572619D01*
X143201190Y-62596428D01*
X143189285Y-62608333D01*
X143165476Y-62620238D01*
X143141666Y-62620238D01*
X143117857Y-62608333D01*
X143105952Y-62596428D01*
X143094047Y-62572619D01*
X143082142Y-62525000D01*
X143070238Y-62501190D01*
X143058333Y-62489285D01*
X143034523Y-62477380D01*
X143010714Y-62477380D01*
X142986904Y-62489285D01*
X142975000Y-62501190D01*
X142963095Y-62525000D01*
X142963095Y-62584523D01*
X142975000Y-62620238D01*
X143082142Y-62727380D02*
X143082142Y-62810714D01*
X143213095Y-62846428D02*
X143213095Y-62727380D01*
X142963095Y-62727380D01*
X142963095Y-62846428D01*
X143213095Y-63084523D02*
X143213095Y-62941666D01*
X143213095Y-63013095D02*
X142963095Y-63013095D01*
X142998809Y-62989285D01*
X143022619Y-62965476D01*
X143034523Y-62941666D01*
%TO.C,C11*%
X160689285Y-65289285D02*
X160701190Y-65277380D01*
X160713095Y-65241666D01*
X160713095Y-65217857D01*
X160701190Y-65182142D01*
X160677380Y-65158333D01*
X160653571Y-65146428D01*
X160605952Y-65134523D01*
X160570238Y-65134523D01*
X160522619Y-65146428D01*
X160498809Y-65158333D01*
X160475000Y-65182142D01*
X160463095Y-65217857D01*
X160463095Y-65241666D01*
X160475000Y-65277380D01*
X160486904Y-65289285D01*
X160713095Y-65527380D02*
X160713095Y-65384523D01*
X160713095Y-65455952D02*
X160463095Y-65455952D01*
X160498809Y-65432142D01*
X160522619Y-65408333D01*
X160534523Y-65384523D01*
X160713095Y-65765476D02*
X160713095Y-65622619D01*
X160713095Y-65694047D02*
X160463095Y-65694047D01*
X160498809Y-65670238D01*
X160522619Y-65646428D01*
X160534523Y-65622619D01*
%TO.C,C10*%
X145460714Y-59289285D02*
X145472619Y-59301190D01*
X145508333Y-59313095D01*
X145532142Y-59313095D01*
X145567857Y-59301190D01*
X145591666Y-59277380D01*
X145603571Y-59253571D01*
X145615476Y-59205952D01*
X145615476Y-59170238D01*
X145603571Y-59122619D01*
X145591666Y-59098809D01*
X145567857Y-59075000D01*
X145532142Y-59063095D01*
X145508333Y-59063095D01*
X145472619Y-59075000D01*
X145460714Y-59086904D01*
X145222619Y-59313095D02*
X145365476Y-59313095D01*
X145294047Y-59313095D02*
X145294047Y-59063095D01*
X145317857Y-59098809D01*
X145341666Y-59122619D01*
X145365476Y-59134523D01*
X145067857Y-59063095D02*
X145044047Y-59063095D01*
X145020238Y-59075000D01*
X145008333Y-59086904D01*
X144996428Y-59110714D01*
X144984523Y-59158333D01*
X144984523Y-59217857D01*
X144996428Y-59265476D01*
X145008333Y-59289285D01*
X145020238Y-59301190D01*
X145044047Y-59313095D01*
X145067857Y-59313095D01*
X145091666Y-59301190D01*
X145103571Y-59289285D01*
X145115476Y-59265476D01*
X145127380Y-59217857D01*
X145127380Y-59158333D01*
X145115476Y-59110714D01*
X145103571Y-59086904D01*
X145091666Y-59075000D01*
X145067857Y-59063095D01*
%TO.C,RN2*%
X203513095Y-72177380D02*
X203394047Y-72094047D01*
X203513095Y-72034523D02*
X203263095Y-72034523D01*
X203263095Y-72129761D01*
X203275000Y-72153571D01*
X203286904Y-72165476D01*
X203310714Y-72177380D01*
X203346428Y-72177380D01*
X203370238Y-72165476D01*
X203382142Y-72153571D01*
X203394047Y-72129761D01*
X203394047Y-72034523D01*
X203513095Y-72284523D02*
X203263095Y-72284523D01*
X203513095Y-72427380D01*
X203263095Y-72427380D01*
X203286904Y-72534523D02*
X203275000Y-72546428D01*
X203263095Y-72570238D01*
X203263095Y-72629761D01*
X203275000Y-72653571D01*
X203286904Y-72665476D01*
X203310714Y-72677380D01*
X203334523Y-72677380D01*
X203370238Y-72665476D01*
X203513095Y-72522619D01*
X203513095Y-72677380D01*
%TO.C,C12*%
X164460714Y-61389285D02*
X164472619Y-61401190D01*
X164508333Y-61413095D01*
X164532142Y-61413095D01*
X164567857Y-61401190D01*
X164591666Y-61377380D01*
X164603571Y-61353571D01*
X164615476Y-61305952D01*
X164615476Y-61270238D01*
X164603571Y-61222619D01*
X164591666Y-61198809D01*
X164567857Y-61175000D01*
X164532142Y-61163095D01*
X164508333Y-61163095D01*
X164472619Y-61175000D01*
X164460714Y-61186904D01*
X164222619Y-61413095D02*
X164365476Y-61413095D01*
X164294047Y-61413095D02*
X164294047Y-61163095D01*
X164317857Y-61198809D01*
X164341666Y-61222619D01*
X164365476Y-61234523D01*
X164127380Y-61186904D02*
X164115476Y-61175000D01*
X164091666Y-61163095D01*
X164032142Y-61163095D01*
X164008333Y-61175000D01*
X163996428Y-61186904D01*
X163984523Y-61210714D01*
X163984523Y-61234523D01*
X163996428Y-61270238D01*
X164139285Y-61413095D01*
X163984523Y-61413095D01*
%TO.C,C5*%
X150541666Y-68489285D02*
X150553571Y-68501190D01*
X150589285Y-68513095D01*
X150613095Y-68513095D01*
X150648809Y-68501190D01*
X150672619Y-68477380D01*
X150684523Y-68453571D01*
X150696428Y-68405952D01*
X150696428Y-68370238D01*
X150684523Y-68322619D01*
X150672619Y-68298809D01*
X150648809Y-68275000D01*
X150613095Y-68263095D01*
X150589285Y-68263095D01*
X150553571Y-68275000D01*
X150541666Y-68286904D01*
X150315476Y-68263095D02*
X150434523Y-68263095D01*
X150446428Y-68382142D01*
X150434523Y-68370238D01*
X150410714Y-68358333D01*
X150351190Y-68358333D01*
X150327380Y-68370238D01*
X150315476Y-68382142D01*
X150303571Y-68405952D01*
X150303571Y-68465476D01*
X150315476Y-68489285D01*
X150327380Y-68501190D01*
X150351190Y-68513095D01*
X150410714Y-68513095D01*
X150434523Y-68501190D01*
X150446428Y-68489285D01*
%TO.C,RN3*%
X206713095Y-72177380D02*
X206594047Y-72094047D01*
X206713095Y-72034523D02*
X206463095Y-72034523D01*
X206463095Y-72129761D01*
X206475000Y-72153571D01*
X206486904Y-72165476D01*
X206510714Y-72177380D01*
X206546428Y-72177380D01*
X206570238Y-72165476D01*
X206582142Y-72153571D01*
X206594047Y-72129761D01*
X206594047Y-72034523D01*
X206713095Y-72284523D02*
X206463095Y-72284523D01*
X206713095Y-72427380D01*
X206463095Y-72427380D01*
X206463095Y-72522619D02*
X206463095Y-72677380D01*
X206558333Y-72594047D01*
X206558333Y-72629761D01*
X206570238Y-72653571D01*
X206582142Y-72665476D01*
X206605952Y-72677380D01*
X206665476Y-72677380D01*
X206689285Y-72665476D01*
X206701190Y-72653571D01*
X206713095Y-72629761D01*
X206713095Y-72558333D01*
X206701190Y-72534523D01*
X206689285Y-72522619D01*
%TO.C,C1*%
X147241666Y-67689285D02*
X147253571Y-67701190D01*
X147289285Y-67713095D01*
X147313095Y-67713095D01*
X147348809Y-67701190D01*
X147372619Y-67677380D01*
X147384523Y-67653571D01*
X147396428Y-67605952D01*
X147396428Y-67570238D01*
X147384523Y-67522619D01*
X147372619Y-67498809D01*
X147348809Y-67475000D01*
X147313095Y-67463095D01*
X147289285Y-67463095D01*
X147253571Y-67475000D01*
X147241666Y-67486904D01*
X147003571Y-67713095D02*
X147146428Y-67713095D01*
X147075000Y-67713095D02*
X147075000Y-67463095D01*
X147098809Y-67498809D01*
X147122619Y-67522619D01*
X147146428Y-67534523D01*
%TO.C,R2*%
X160313095Y-62758333D02*
X160194047Y-62675000D01*
X160313095Y-62615476D02*
X160063095Y-62615476D01*
X160063095Y-62710714D01*
X160075000Y-62734523D01*
X160086904Y-62746428D01*
X160110714Y-62758333D01*
X160146428Y-62758333D01*
X160170238Y-62746428D01*
X160182142Y-62734523D01*
X160194047Y-62710714D01*
X160194047Y-62615476D01*
X160086904Y-62853571D02*
X160075000Y-62865476D01*
X160063095Y-62889285D01*
X160063095Y-62948809D01*
X160075000Y-62972619D01*
X160086904Y-62984523D01*
X160110714Y-62996428D01*
X160134523Y-62996428D01*
X160170238Y-62984523D01*
X160313095Y-62841666D01*
X160313095Y-62996428D01*
%TO.C,R6*%
X164041666Y-68313095D02*
X164125000Y-68194047D01*
X164184523Y-68313095D02*
X164184523Y-68063095D01*
X164089285Y-68063095D01*
X164065476Y-68075000D01*
X164053571Y-68086904D01*
X164041666Y-68110714D01*
X164041666Y-68146428D01*
X164053571Y-68170238D01*
X164065476Y-68182142D01*
X164089285Y-68194047D01*
X164184523Y-68194047D01*
X163827380Y-68063095D02*
X163875000Y-68063095D01*
X163898809Y-68075000D01*
X163910714Y-68086904D01*
X163934523Y-68122619D01*
X163946428Y-68170238D01*
X163946428Y-68265476D01*
X163934523Y-68289285D01*
X163922619Y-68301190D01*
X163898809Y-68313095D01*
X163851190Y-68313095D01*
X163827380Y-68301190D01*
X163815476Y-68289285D01*
X163803571Y-68265476D01*
X163803571Y-68205952D01*
X163815476Y-68182142D01*
X163827380Y-68170238D01*
X163851190Y-68158333D01*
X163898809Y-68158333D01*
X163922619Y-68170238D01*
X163934523Y-68182142D01*
X163946428Y-68205952D01*
%TO.C,C6*%
X146689285Y-59458333D02*
X146701190Y-59446428D01*
X146713095Y-59410714D01*
X146713095Y-59386904D01*
X146701190Y-59351190D01*
X146677380Y-59327380D01*
X146653571Y-59315476D01*
X146605952Y-59303571D01*
X146570238Y-59303571D01*
X146522619Y-59315476D01*
X146498809Y-59327380D01*
X146475000Y-59351190D01*
X146463095Y-59386904D01*
X146463095Y-59410714D01*
X146475000Y-59446428D01*
X146486904Y-59458333D01*
X146463095Y-59672619D02*
X146463095Y-59625000D01*
X146475000Y-59601190D01*
X146486904Y-59589285D01*
X146522619Y-59565476D01*
X146570238Y-59553571D01*
X146665476Y-59553571D01*
X146689285Y-59565476D01*
X146701190Y-59577380D01*
X146713095Y-59601190D01*
X146713095Y-59648809D01*
X146701190Y-59672619D01*
X146689285Y-59684523D01*
X146665476Y-59696428D01*
X146605952Y-59696428D01*
X146582142Y-59684523D01*
X146570238Y-59672619D01*
X146558333Y-59648809D01*
X146558333Y-59601190D01*
X146570238Y-59577380D01*
X146582142Y-59565476D01*
X146605952Y-59553571D01*
%TO.C,R3*%
X159113095Y-62758333D02*
X158994047Y-62675000D01*
X159113095Y-62615476D02*
X158863095Y-62615476D01*
X158863095Y-62710714D01*
X158875000Y-62734523D01*
X158886904Y-62746428D01*
X158910714Y-62758333D01*
X158946428Y-62758333D01*
X158970238Y-62746428D01*
X158982142Y-62734523D01*
X158994047Y-62710714D01*
X158994047Y-62615476D01*
X158863095Y-62841666D02*
X158863095Y-62996428D01*
X158958333Y-62913095D01*
X158958333Y-62948809D01*
X158970238Y-62972619D01*
X158982142Y-62984523D01*
X159005952Y-62996428D01*
X159065476Y-62996428D01*
X159089285Y-62984523D01*
X159101190Y-62972619D01*
X159113095Y-62948809D01*
X159113095Y-62877380D01*
X159101190Y-62853571D01*
X159089285Y-62841666D01*
%TO.C,R4*%
X157791666Y-69513095D02*
X157875000Y-69394047D01*
X157934523Y-69513095D02*
X157934523Y-69263095D01*
X157839285Y-69263095D01*
X157815476Y-69275000D01*
X157803571Y-69286904D01*
X157791666Y-69310714D01*
X157791666Y-69346428D01*
X157803571Y-69370238D01*
X157815476Y-69382142D01*
X157839285Y-69394047D01*
X157934523Y-69394047D01*
X157577380Y-69346428D02*
X157577380Y-69513095D01*
X157636904Y-69251190D02*
X157696428Y-69429761D01*
X157541666Y-69429761D01*
%TO.C,C9*%
X144841666Y-66189285D02*
X144853571Y-66201190D01*
X144889285Y-66213095D01*
X144913095Y-66213095D01*
X144948809Y-66201190D01*
X144972619Y-66177380D01*
X144984523Y-66153571D01*
X144996428Y-66105952D01*
X144996428Y-66070238D01*
X144984523Y-66022619D01*
X144972619Y-65998809D01*
X144948809Y-65975000D01*
X144913095Y-65963095D01*
X144889285Y-65963095D01*
X144853571Y-65975000D01*
X144841666Y-65986904D01*
X144722619Y-66213095D02*
X144675000Y-66213095D01*
X144651190Y-66201190D01*
X144639285Y-66189285D01*
X144615476Y-66153571D01*
X144603571Y-66105952D01*
X144603571Y-66010714D01*
X144615476Y-65986904D01*
X144627380Y-65975000D01*
X144651190Y-65963095D01*
X144698809Y-65963095D01*
X144722619Y-65975000D01*
X144734523Y-65986904D01*
X144746428Y-66010714D01*
X144746428Y-66070238D01*
X144734523Y-66094047D01*
X144722619Y-66105952D01*
X144698809Y-66117857D01*
X144651190Y-66117857D01*
X144627380Y-66105952D01*
X144615476Y-66094047D01*
X144603571Y-66070238D01*
%TO.C,R7*%
X143541666Y-68413095D02*
X143625000Y-68294047D01*
X143684523Y-68413095D02*
X143684523Y-68163095D01*
X143589285Y-68163095D01*
X143565476Y-68175000D01*
X143553571Y-68186904D01*
X143541666Y-68210714D01*
X143541666Y-68246428D01*
X143553571Y-68270238D01*
X143565476Y-68282142D01*
X143589285Y-68294047D01*
X143684523Y-68294047D01*
X143458333Y-68163095D02*
X143291666Y-68163095D01*
X143398809Y-68413095D01*
%TO.C,RN1*%
X197813095Y-72177380D02*
X197694047Y-72094047D01*
X197813095Y-72034523D02*
X197563095Y-72034523D01*
X197563095Y-72129761D01*
X197575000Y-72153571D01*
X197586904Y-72165476D01*
X197610714Y-72177380D01*
X197646428Y-72177380D01*
X197670238Y-72165476D01*
X197682142Y-72153571D01*
X197694047Y-72129761D01*
X197694047Y-72034523D01*
X197813095Y-72284523D02*
X197563095Y-72284523D01*
X197813095Y-72427380D01*
X197563095Y-72427380D01*
X197813095Y-72677380D02*
X197813095Y-72534523D01*
X197813095Y-72605952D02*
X197563095Y-72605952D01*
X197598809Y-72582142D01*
X197622619Y-72558333D01*
X197634523Y-72534523D01*
%TO.C,C4*%
X157941666Y-65589285D02*
X157953571Y-65601190D01*
X157989285Y-65613095D01*
X158013095Y-65613095D01*
X158048809Y-65601190D01*
X158072619Y-65577380D01*
X158084523Y-65553571D01*
X158096428Y-65505952D01*
X158096428Y-65470238D01*
X158084523Y-65422619D01*
X158072619Y-65398809D01*
X158048809Y-65375000D01*
X158013095Y-65363095D01*
X157989285Y-65363095D01*
X157953571Y-65375000D01*
X157941666Y-65386904D01*
X157727380Y-65446428D02*
X157727380Y-65613095D01*
X157786904Y-65351190D02*
X157846428Y-65529761D01*
X157691666Y-65529761D01*
D13*
%TO.C,RN4*%
X209620000Y-72600000D02*
X209620000Y-72100000D01*
X211980000Y-72600000D02*
X211980000Y-72100000D01*
%TO.C,C7*%
X146110000Y-57557836D02*
X146110000Y-57342164D01*
X145390000Y-57557836D02*
X145390000Y-57342164D01*
%TO.C,R5*%
X147730000Y-61296359D02*
X147730000Y-61603641D01*
X146970000Y-61296359D02*
X146970000Y-61603641D01*
D14*
%TO.C,U3*%
X210833330Y-69203800D02*
X207683730Y-69203800D01*
X209563330Y-59196200D02*
X210833330Y-59196200D01*
X207683730Y-59196200D02*
X208953730Y-59196200D01*
X208953730Y-59196200D02*
X209563330Y-59196200D01*
X208953730Y-59196200D02*
G75*
G03*
X209563330Y-59196200I304800J0D01*
G01*
D13*
%TO.C,U4*%
X162290000Y-64750000D02*
X162290000Y-65550000D01*
X162290000Y-64750000D02*
X162290000Y-63950000D01*
X165410000Y-64750000D02*
X165410000Y-66550000D01*
X165410000Y-64750000D02*
X165410000Y-63950000D01*
%TO.C,C8*%
X151992164Y-70910000D02*
X152207836Y-70910000D01*
X151992164Y-70190000D02*
X152207836Y-70190000D01*
%TO.C,C3*%
X155457836Y-56360000D02*
X155242164Y-56360000D01*
X155457836Y-55640000D02*
X155242164Y-55640000D01*
%TO.C,R1*%
X152263641Y-71980000D02*
X151956359Y-71980000D01*
X152263641Y-71220000D02*
X151956359Y-71220000D01*
%TO.C,U2*%
X149940000Y-58140000D02*
X149490000Y-58140000D01*
X156260000Y-65360000D02*
X156710000Y-65360000D01*
X149490000Y-65360000D02*
X149490000Y-64910000D01*
X156260000Y-58140000D02*
X156710000Y-58140000D01*
X149940000Y-65360000D02*
X149490000Y-65360000D01*
X149490000Y-64910000D02*
X148200000Y-64910000D01*
X156710000Y-58140000D02*
X156710000Y-58590000D01*
X156710000Y-65360000D02*
X156710000Y-64910000D01*
X149490000Y-58140000D02*
X149490000Y-58590000D01*
%TO.C,C2*%
X147940000Y-65992164D02*
X147940000Y-66207836D01*
X148660000Y-65992164D02*
X148660000Y-66207836D01*
%TO.C,HSE1*%
X143400000Y-64650000D02*
X143400000Y-60650000D01*
X146700000Y-64650000D02*
X143400000Y-64650000D01*
%TO.C,C11*%
X160990000Y-65557836D02*
X160990000Y-65342164D01*
X161710000Y-65557836D02*
X161710000Y-65342164D01*
%TO.C,C10*%
X145157836Y-60310000D02*
X144942164Y-60310000D01*
X145157836Y-59590000D02*
X144942164Y-59590000D01*
%TO.C,RN2*%
X203080000Y-72600000D02*
X203080000Y-72100000D01*
X200720000Y-72600000D02*
X200720000Y-72100000D01*
%TO.C,C12*%
X164192164Y-61640000D02*
X164407836Y-61640000D01*
X164192164Y-62360000D02*
X164407836Y-62360000D01*
%TO.C,C5*%
X150392164Y-67290000D02*
X150607836Y-67290000D01*
X150392164Y-68010000D02*
X150607836Y-68010000D01*
%TO.C,RN3*%
X209280000Y-72600000D02*
X209280000Y-72100000D01*
X206920000Y-72600000D02*
X206920000Y-72100000D01*
%TO.C,C1*%
X147307836Y-68710000D02*
X147092164Y-68710000D01*
X147307836Y-67990000D02*
X147092164Y-67990000D01*
%TO.C,R2*%
X160630000Y-63946359D02*
X160630000Y-64253641D01*
X159870000Y-63946359D02*
X159870000Y-64253641D01*
%TO.C,R6*%
X163846359Y-68570000D02*
X164153641Y-68570000D01*
X163846359Y-69330000D02*
X164153641Y-69330000D01*
D15*
%TO.C,J5*%
X160775000Y-70250000D02*
X163050000Y-70250000D01*
X160775000Y-71050000D02*
X160775000Y-70250000D01*
X160775000Y-75450000D02*
X160775000Y-76250000D01*
X165025000Y-71450000D02*
X165025000Y-75050000D01*
X160775000Y-76250000D02*
X163050000Y-76250000D01*
D16*
X160165000Y-70800000D02*
G75*
G03*
X160165000Y-70800000I-100000J0D01*
G01*
D13*
%TO.C,C6*%
X146990000Y-59607836D02*
X146990000Y-59392164D01*
X147710000Y-59607836D02*
X147710000Y-59392164D01*
%TO.C,R3*%
X158670000Y-63946359D02*
X158670000Y-64253641D01*
X159430000Y-63946359D02*
X159430000Y-64253641D01*
%TO.C,SW16*%
X155250000Y-75025000D02*
X155250000Y-75325000D01*
X155250000Y-72825000D02*
X155250000Y-72525000D01*
X151950000Y-72525000D02*
X151950000Y-72825000D01*
X151950000Y-75325000D02*
X151950000Y-75025000D01*
X155250000Y-72525000D02*
X151950000Y-72525000D01*
X155250000Y-75325000D02*
X151950000Y-75325000D01*
%TO.C,R4*%
X157596359Y-69030000D02*
X157903641Y-69030000D01*
X157596359Y-68270000D02*
X157903641Y-68270000D01*
%TO.C,C9*%
X144892164Y-65710000D02*
X145107836Y-65710000D01*
X144892164Y-64990000D02*
X145107836Y-64990000D01*
%TO.C,R7*%
X143653641Y-68620000D02*
X143346359Y-68620000D01*
X143653641Y-69380000D02*
X143346359Y-69380000D01*
%TO.C,RN1*%
X200380000Y-72600000D02*
X200380000Y-72100000D01*
X198020000Y-72600000D02*
X198020000Y-72100000D01*
D15*
%TO.C,J6*%
X142275000Y-75050000D02*
X142275000Y-71450000D01*
X146525000Y-75450000D02*
X146525000Y-76250000D01*
X146525000Y-71050000D02*
X146525000Y-70250000D01*
X146525000Y-76250000D02*
X144250000Y-76250000D01*
X146525000Y-70250000D02*
X144250000Y-70250000D01*
D16*
X147335000Y-75700000D02*
G75*
G03*
X147335000Y-75700000I-100000J0D01*
G01*
D13*
%TO.C,C4*%
X158007836Y-65840000D02*
X157792164Y-65840000D01*
X158007836Y-66560000D02*
X157792164Y-66560000D01*
D14*
%TO.C,U1*%
X200295200Y-59196200D02*
X200904800Y-59196200D01*
X202174800Y-69203800D02*
X199025200Y-69203800D01*
X199025200Y-59196200D02*
X200295200Y-59196200D01*
X200904800Y-59196200D02*
X202174800Y-59196200D01*
X200295200Y-59196200D02*
G75*
G03*
X200904800Y-59196200I304800J0D01*
G01*
%TD*%
M02*
