%TF.GenerationSoftware,KiCad,Pcbnew,(6.0.7)*%
%TF.CreationDate,2022-09-25T11:51:51-07:00*%
%TF.ProjectId,ModularKeyboard_Main,4d6f6475-6c61-4724-9b65-79626f617264,0.1*%
%TF.SameCoordinates,Original*%
%TF.FileFunction,Soldermask,Top*%
%TF.FilePolarity,Negative*%
%FSLAX46Y46*%
G04 Gerber Fmt 4.6, Leading zero omitted, Abs format (unit mm)*
G04 Created by KiCad (PCBNEW (6.0.7)) date 2022-09-25 11:51:51*
%MOMM*%
%LPD*%
G01*
G04 APERTURE LIST*
G04 Aperture macros list*
%AMRoundRect*
0 Rectangle with rounded corners*
0 $1 Rounding radius*
0 $2 $3 $4 $5 $6 $7 $8 $9 X,Y pos of 4 corners*
0 Add a 4 corners polygon primitive as box body*
4,1,4,$2,$3,$4,$5,$6,$7,$8,$9,$2,$3,0*
0 Add four circle primitives for the rounded corners*
1,1,$1+$1,$2,$3*
1,1,$1+$1,$4,$5*
1,1,$1+$1,$6,$7*
1,1,$1+$1,$8,$9*
0 Add four rect primitives between the rounded corners*
20,1,$1+$1,$2,$3,$4,$5,0*
20,1,$1+$1,$4,$5,$6,$7,0*
20,1,$1+$1,$6,$7,$8,$9,0*
20,1,$1+$1,$8,$9,$2,$3,0*%
G04 Aperture macros list end*
%ADD10C,1.750000*%
%ADD11C,3.987800*%
%ADD12C,3.500000*%
%ADD13C,0.610000*%
%ADD14RoundRect,0.412500X0.787500X-0.412500X0.787500X0.412500X-0.787500X0.412500X-0.787500X-0.412500X0*%
%ADD15C,2.200000*%
%ADD16RoundRect,0.412500X-0.787500X0.412500X-0.787500X-0.412500X0.787500X-0.412500X0.787500X0.412500X0*%
G04 APERTURE END LIST*
D10*
%TO.C,SW12*%
X210880000Y-85600000D03*
X200720000Y-85600000D03*
D11*
X205800000Y-85600000D03*
%TD*%
D12*
%TO.C,MH3*%
X170225000Y-69125000D03*
%TD*%
%TO.C,MH1*%
X170225000Y-56625000D03*
%TD*%
D11*
%TO.C,SW1*%
X148650000Y-104650000D03*
D10*
X153730000Y-104650000D03*
X143570000Y-104650000D03*
%TD*%
D13*
%TO.C,J3*%
X137650000Y-72640000D03*
X137650000Y-70140000D03*
D14*
X138000000Y-73890000D03*
X138000000Y-71390000D03*
X138000000Y-68890000D03*
%TD*%
D10*
%TO.C,SW3*%
X143570000Y-142750000D03*
D11*
X148650000Y-142750000D03*
D10*
X153730000Y-142750000D03*
%TD*%
%TO.C,SW9*%
X181670000Y-104650000D03*
D11*
X186750000Y-104650000D03*
D10*
X191830000Y-104650000D03*
%TD*%
%TO.C,SW8*%
X181670000Y-85600000D03*
X191830000Y-85600000D03*
D11*
X186750000Y-85600000D03*
%TD*%
D10*
%TO.C,SW13*%
X210880000Y-104650000D03*
D11*
X205800000Y-104650000D03*
D10*
X200720000Y-104650000D03*
%TD*%
D15*
%TO.C,H2*%
X196275000Y-133200000D03*
%TD*%
D13*
%TO.C,J4*%
X216850000Y-58100000D03*
X216850000Y-60600000D03*
D16*
X216500000Y-56850000D03*
X216500000Y-59350000D03*
X216500000Y-61850000D03*
%TD*%
D10*
%TO.C,SW0*%
X153730004Y-85600003D03*
D11*
X148650004Y-85600003D03*
D10*
X143570004Y-85600003D03*
%TD*%
%TO.C,SW5*%
X172780004Y-104650003D03*
D11*
X167700004Y-104650003D03*
D10*
X162620004Y-104650003D03*
%TD*%
D12*
%TO.C,MH4*%
X184225000Y-69125000D03*
%TD*%
D11*
%TO.C,SW15*%
X205800004Y-142750003D03*
D10*
X200720004Y-142750003D03*
X210880004Y-142750003D03*
%TD*%
D11*
%TO.C,SW2*%
X148650000Y-123700000D03*
D10*
X153730000Y-123700000D03*
X143570000Y-123700000D03*
%TD*%
D13*
%TO.C,J2*%
X137650000Y-58100000D03*
X137650000Y-60600000D03*
D14*
X138000000Y-61850000D03*
X138000000Y-59350000D03*
X138000000Y-56850000D03*
%TD*%
D15*
%TO.C,H1*%
X196275000Y-95125000D03*
%TD*%
%TO.C,H4*%
X158180000Y-133215000D03*
%TD*%
D13*
%TO.C,J1*%
X216850000Y-72660000D03*
X216850000Y-70160000D03*
D16*
X216500000Y-68910000D03*
X216500000Y-71410000D03*
X216500000Y-73910000D03*
%TD*%
D11*
%TO.C,SW14*%
X205800000Y-123700000D03*
D10*
X210880000Y-123700000D03*
X200720000Y-123700000D03*
%TD*%
D11*
%TO.C,SW6*%
X167700000Y-123700000D03*
D10*
X162620000Y-123700000D03*
X172780000Y-123700000D03*
%TD*%
D12*
%TO.C,MH2*%
X184225000Y-56625000D03*
%TD*%
D10*
%TO.C,SW4*%
X172780004Y-85600003D03*
D11*
X167700004Y-85600003D03*
D10*
X162620004Y-85600003D03*
%TD*%
D11*
%TO.C,SW11*%
X186730000Y-142750000D03*
D10*
X181650000Y-142750000D03*
X191810000Y-142750000D03*
%TD*%
%TO.C,SW10*%
X181670004Y-123700003D03*
X191830004Y-123700003D03*
D11*
X186750004Y-123700003D03*
%TD*%
D10*
%TO.C,SW7*%
X172780000Y-142750000D03*
D11*
X167700000Y-142750000D03*
D10*
X162620000Y-142750000D03*
%TD*%
D15*
%TO.C,H3*%
X158180000Y-95145000D03*
%TD*%
M02*
