%TF.GenerationSoftware,KiCad,Pcbnew,(6.0.7)*%
%TF.CreationDate,2022-09-25T11:51:51-07:00*%
%TF.ProjectId,ModularKeyboard_Main,4d6f6475-6c61-4724-9b65-79626f617264,0.1*%
%TF.SameCoordinates,Original*%
%TF.FileFunction,Soldermask,Bot*%
%TF.FilePolarity,Negative*%
%FSLAX46Y46*%
G04 Gerber Fmt 4.6, Leading zero omitted, Abs format (unit mm)*
G04 Created by KiCad (PCBNEW (6.0.7)) date 2022-09-25 11:51:51*
%MOMM*%
%LPD*%
G01*
G04 APERTURE LIST*
G04 Aperture macros list*
%AMRoundRect*
0 Rectangle with rounded corners*
0 $1 Rounding radius*
0 $2 $3 $4 $5 $6 $7 $8 $9 X,Y pos of 4 corners*
0 Add a 4 corners polygon primitive as box body*
4,1,4,$2,$3,$4,$5,$6,$7,$8,$9,$2,$3,0*
0 Add four circle primitives for the rounded corners*
1,1,$1+$1,$2,$3*
1,1,$1+$1,$4,$5*
1,1,$1+$1,$6,$7*
1,1,$1+$1,$8,$9*
0 Add four rect primitives between the rounded corners*
20,1,$1+$1,$2,$3,$4,$5,0*
20,1,$1+$1,$4,$5,$6,$7,0*
20,1,$1+$1,$6,$7,$8,$9,0*
20,1,$1+$1,$8,$9,$2,$3,0*%
%AMHorizOval*
0 Thick line with rounded ends*
0 $1 width*
0 $2 $3 position (X,Y) of the first rounded end (center of the circle)*
0 $4 $5 position (X,Y) of the second rounded end (center of the circle)*
0 Add line between two ends*
20,1,$1,$2,$3,$4,$5,0*
0 Add two circle primitives to create the rounded ends*
1,1,$1,$2,$3*
1,1,$1,$4,$5*%
G04 Aperture macros list end*
%ADD10C,1.750000*%
%ADD11C,3.987800*%
%ADD12C,2.250000*%
%ADD13HorizOval,2.250000X0.655001X0.730000X-0.655001X-0.730000X0*%
%ADD14HorizOval,2.250000X0.020000X0.290000X-0.020000X-0.290000X0*%
%ADD15C,3.500000*%
%ADD16C,0.610000*%
%ADD17C,2.200000*%
%ADD18C,1.397000*%
%ADD19R,0.400000X0.500000*%
%ADD20R,0.300000X0.500000*%
%ADD21RoundRect,0.140000X0.170000X-0.140000X0.170000X0.140000X-0.170000X0.140000X-0.170000X-0.140000X0*%
%ADD22RoundRect,0.135000X-0.185000X0.135000X-0.185000X-0.135000X0.185000X-0.135000X0.185000X0.135000X0*%
%ADD23R,1.701800X0.533400*%
%ADD24RoundRect,0.150000X0.150000X-0.512500X0.150000X0.512500X-0.150000X0.512500X-0.150000X-0.512500X0*%
%ADD25RoundRect,0.140000X-0.140000X-0.170000X0.140000X-0.170000X0.140000X0.170000X-0.140000X0.170000X0*%
%ADD26RoundRect,0.140000X0.140000X0.170000X-0.140000X0.170000X-0.140000X-0.170000X0.140000X-0.170000X0*%
%ADD27RoundRect,0.135000X0.135000X0.185000X-0.135000X0.185000X-0.135000X-0.185000X0.135000X-0.185000X0*%
%ADD28RoundRect,0.075000X-0.662500X-0.075000X0.662500X-0.075000X0.662500X0.075000X-0.662500X0.075000X0*%
%ADD29RoundRect,0.075000X-0.075000X-0.662500X0.075000X-0.662500X0.075000X0.662500X-0.075000X0.662500X0*%
%ADD30RoundRect,0.140000X-0.170000X0.140000X-0.170000X-0.140000X0.170000X-0.140000X0.170000X0.140000X0*%
%ADD31R,1.200000X1.400000*%
%ADD32RoundRect,0.135000X-0.135000X-0.185000X0.135000X-0.185000X0.135000X0.185000X-0.135000X0.185000X0*%
%ADD33R,1.550000X0.600000*%
%ADD34R,1.800000X1.200000*%
%ADD35R,0.900000X1.700000*%
G04 APERTURE END LIST*
D10*
%TO.C,SW12*%
X210880000Y-85600000D03*
X200720000Y-85600000D03*
D11*
X205800000Y-85600000D03*
D12*
X203300000Y-81600000D03*
D13*
X202645001Y-82330000D03*
D14*
X208320000Y-80810000D03*
D12*
X208340000Y-80520000D03*
%TD*%
D15*
%TO.C,MH3*%
X170225000Y-69125000D03*
%TD*%
%TO.C,MH1*%
X170225000Y-56625000D03*
%TD*%
D11*
%TO.C,SW1*%
X148650000Y-104650000D03*
D10*
X153730000Y-104650000D03*
X143570000Y-104650000D03*
D12*
X146150000Y-100650000D03*
D13*
X145495001Y-101380000D03*
D12*
X151190000Y-99570000D03*
D14*
X151170000Y-99860000D03*
%TD*%
D16*
%TO.C,J3*%
X137650000Y-72640000D03*
X137650000Y-70140000D03*
%TD*%
D10*
%TO.C,SW3*%
X143570000Y-142750000D03*
D11*
X148650000Y-142750000D03*
D10*
X153730000Y-142750000D03*
D13*
X145495001Y-139480000D03*
D12*
X146150000Y-138750000D03*
X151190000Y-137670000D03*
D14*
X151170000Y-137960000D03*
%TD*%
D10*
%TO.C,SW9*%
X181670000Y-104650000D03*
D11*
X186750000Y-104650000D03*
D10*
X191830000Y-104650000D03*
D12*
X184250000Y-100650000D03*
D13*
X183595001Y-101380000D03*
D12*
X189290000Y-99570000D03*
D14*
X189270000Y-99860000D03*
%TD*%
D10*
%TO.C,SW8*%
X181670000Y-85600000D03*
X191830000Y-85600000D03*
D11*
X186750000Y-85600000D03*
D12*
X184250000Y-81600000D03*
D13*
X183595001Y-82330000D03*
D14*
X189270000Y-80810000D03*
D12*
X189290000Y-80520000D03*
%TD*%
D10*
%TO.C,SW13*%
X210880000Y-104650000D03*
D11*
X205800000Y-104650000D03*
D10*
X200720000Y-104650000D03*
D13*
X202645001Y-101380000D03*
D12*
X203300000Y-100650000D03*
X208340000Y-99570000D03*
D14*
X208320000Y-99860000D03*
%TD*%
D17*
%TO.C,H2*%
X196275000Y-133200000D03*
%TD*%
D16*
%TO.C,J4*%
X216850000Y-58100000D03*
X216850000Y-60600000D03*
%TD*%
D10*
%TO.C,SW0*%
X153730004Y-85600003D03*
D11*
X148650004Y-85600003D03*
D10*
X143570004Y-85600003D03*
D12*
X146150004Y-81600003D03*
D13*
X145495005Y-82330003D03*
D14*
X151170004Y-80810003D03*
D12*
X151190004Y-80520003D03*
%TD*%
D10*
%TO.C,SW5*%
X172780004Y-104650003D03*
D11*
X167700004Y-104650003D03*
D10*
X162620004Y-104650003D03*
D13*
X164545005Y-101380003D03*
D12*
X165200004Y-100650003D03*
X170240004Y-99570003D03*
D14*
X170220004Y-99860003D03*
%TD*%
D15*
%TO.C,MH4*%
X184225000Y-69125000D03*
%TD*%
D18*
%TO.C,OL1*%
X194925000Y-65835000D03*
X194925000Y-63295000D03*
X194925000Y-60755000D03*
X194925000Y-58215000D03*
%TD*%
D11*
%TO.C,SW15*%
X205800004Y-142750003D03*
D10*
X200720004Y-142750003D03*
X210880004Y-142750003D03*
D13*
X202645005Y-139480003D03*
D12*
X203300004Y-138750003D03*
D14*
X208320004Y-137960003D03*
D12*
X208340004Y-137670003D03*
%TD*%
D11*
%TO.C,SW2*%
X148650000Y-123700000D03*
D10*
X153730000Y-123700000D03*
X143570000Y-123700000D03*
D12*
X146150000Y-119700000D03*
D13*
X145495001Y-120430000D03*
D12*
X151190000Y-118620000D03*
D14*
X151170000Y-118910000D03*
%TD*%
D16*
%TO.C,J2*%
X137650000Y-58100000D03*
X137650000Y-60600000D03*
%TD*%
D17*
%TO.C,H1*%
X196275000Y-95125000D03*
%TD*%
%TO.C,H4*%
X158180000Y-133215000D03*
%TD*%
D16*
%TO.C,J1*%
X216850000Y-72660000D03*
X216850000Y-70160000D03*
%TD*%
D11*
%TO.C,SW14*%
X205800000Y-123700000D03*
D10*
X210880000Y-123700000D03*
X200720000Y-123700000D03*
D12*
X203300000Y-119700000D03*
D13*
X202645001Y-120430000D03*
D12*
X208340000Y-118620000D03*
D14*
X208320000Y-118910000D03*
%TD*%
D11*
%TO.C,SW6*%
X167700000Y-123700000D03*
D10*
X162620000Y-123700000D03*
X172780000Y-123700000D03*
D13*
X164545001Y-120430000D03*
D12*
X165200000Y-119700000D03*
X170240000Y-118620000D03*
D14*
X170220000Y-118910000D03*
%TD*%
D15*
%TO.C,MH2*%
X184225000Y-56625000D03*
%TD*%
D10*
%TO.C,SW4*%
X172780004Y-85600003D03*
D11*
X167700004Y-85600003D03*
D10*
X162620004Y-85600003D03*
D12*
X165200004Y-81600003D03*
D13*
X164545005Y-82330003D03*
D14*
X170220004Y-80810003D03*
D12*
X170240004Y-80520003D03*
%TD*%
D11*
%TO.C,SW11*%
X186730000Y-142750000D03*
D10*
X181650000Y-142750000D03*
X191810000Y-142750000D03*
D12*
X184230000Y-138750000D03*
D13*
X183575001Y-139480000D03*
D14*
X189250000Y-137960000D03*
D12*
X189270000Y-137670000D03*
%TD*%
D10*
%TO.C,SW10*%
X181670004Y-123700003D03*
X191830004Y-123700003D03*
D11*
X186750004Y-123700003D03*
D13*
X183595005Y-120430003D03*
D12*
X184250004Y-119700003D03*
X189290004Y-118620003D03*
D14*
X189270004Y-118910003D03*
%TD*%
D10*
%TO.C,SW7*%
X172780000Y-142750000D03*
D11*
X167700000Y-142750000D03*
D10*
X162620000Y-142750000D03*
D12*
X165200000Y-138750000D03*
D13*
X164545001Y-139480000D03*
D14*
X170220000Y-137960000D03*
D12*
X170240000Y-137670000D03*
%TD*%
D17*
%TO.C,H3*%
X158180000Y-95145000D03*
%TD*%
D19*
%TO.C,RN4*%
X210050000Y-71850000D03*
D20*
X210550000Y-71850000D03*
X211050000Y-71850000D03*
D19*
X211550000Y-71850000D03*
X211550000Y-72850000D03*
D20*
X211050000Y-72850000D03*
X210550000Y-72850000D03*
D19*
X210050000Y-72850000D03*
%TD*%
D21*
%TO.C,C7*%
X145750000Y-57930000D03*
X145750000Y-56970000D03*
%TD*%
D22*
%TO.C,R5*%
X147350000Y-60940000D03*
X147350000Y-61960000D03*
%TD*%
D23*
%TO.C,U3*%
X211849330Y-59755000D03*
X211849330Y-61025000D03*
X211849330Y-62295000D03*
X211849330Y-63565000D03*
X211849330Y-64835000D03*
X211849330Y-66105000D03*
X211849330Y-67375000D03*
X211849330Y-68645000D03*
X206667730Y-68645000D03*
X206667730Y-67375000D03*
X206667730Y-66105000D03*
X206667730Y-64835000D03*
X206667730Y-63565000D03*
X206667730Y-62295000D03*
X206667730Y-61025000D03*
X206667730Y-59755000D03*
%TD*%
D24*
%TO.C,U4*%
X164800000Y-65887500D03*
X163850000Y-65887500D03*
X162900000Y-65887500D03*
X162900000Y-63612500D03*
X164800000Y-63612500D03*
%TD*%
D25*
%TO.C,C8*%
X151620000Y-70550000D03*
X152580000Y-70550000D03*
%TD*%
D26*
%TO.C,C3*%
X155830000Y-56000000D03*
X154870000Y-56000000D03*
%TD*%
D27*
%TO.C,R1*%
X152620000Y-71600000D03*
X151600000Y-71600000D03*
%TD*%
D28*
%TO.C,U2*%
X148937500Y-64500000D03*
X148937500Y-64000000D03*
X148937500Y-63500000D03*
X148937500Y-63000000D03*
X148937500Y-62500000D03*
X148937500Y-62000000D03*
X148937500Y-61500000D03*
X148937500Y-61000000D03*
X148937500Y-60500000D03*
X148937500Y-60000000D03*
X148937500Y-59500000D03*
X148937500Y-59000000D03*
D29*
X150350000Y-57587500D03*
X150850000Y-57587500D03*
X151350000Y-57587500D03*
X151850000Y-57587500D03*
X152350000Y-57587500D03*
X152850000Y-57587500D03*
X153350000Y-57587500D03*
X153850000Y-57587500D03*
X154350000Y-57587500D03*
X154850000Y-57587500D03*
X155350000Y-57587500D03*
X155850000Y-57587500D03*
D28*
X157262500Y-59000000D03*
X157262500Y-59500000D03*
X157262500Y-60000000D03*
X157262500Y-60500000D03*
X157262500Y-61000000D03*
X157262500Y-61500000D03*
X157262500Y-62000000D03*
X157262500Y-62500000D03*
X157262500Y-63000000D03*
X157262500Y-63500000D03*
X157262500Y-64000000D03*
X157262500Y-64500000D03*
D29*
X155850000Y-65912500D03*
X155350000Y-65912500D03*
X154850000Y-65912500D03*
X154350000Y-65912500D03*
X153850000Y-65912500D03*
X153350000Y-65912500D03*
X152850000Y-65912500D03*
X152350000Y-65912500D03*
X151850000Y-65912500D03*
X151350000Y-65912500D03*
X150850000Y-65912500D03*
X150350000Y-65912500D03*
%TD*%
D30*
%TO.C,C2*%
X148300000Y-65620000D03*
X148300000Y-66580000D03*
%TD*%
D31*
%TO.C,HSE1*%
X144200000Y-63750000D03*
X144200000Y-61550000D03*
X145900000Y-61550000D03*
X145900000Y-63750000D03*
%TD*%
D21*
%TO.C,C11*%
X161350000Y-65930000D03*
X161350000Y-64970000D03*
%TD*%
D26*
%TO.C,C10*%
X145530000Y-59950000D03*
X144570000Y-59950000D03*
%TD*%
D19*
%TO.C,RN2*%
X201150000Y-71850000D03*
D20*
X201650000Y-71850000D03*
X202150000Y-71850000D03*
D19*
X202650000Y-71850000D03*
X202650000Y-72850000D03*
D20*
X202150000Y-72850000D03*
X201650000Y-72850000D03*
D19*
X201150000Y-72850000D03*
%TD*%
D25*
%TO.C,C12*%
X163820000Y-62000000D03*
X164780000Y-62000000D03*
%TD*%
%TO.C,C5*%
X150020000Y-67650000D03*
X150980000Y-67650000D03*
%TD*%
D19*
%TO.C,RN3*%
X207350000Y-71850000D03*
D20*
X207850000Y-71850000D03*
X208350000Y-71850000D03*
D19*
X208850000Y-71850000D03*
X208850000Y-72850000D03*
D20*
X208350000Y-72850000D03*
X207850000Y-72850000D03*
D19*
X207350000Y-72850000D03*
%TD*%
D26*
%TO.C,C1*%
X147680000Y-68350000D03*
X146720000Y-68350000D03*
%TD*%
D22*
%TO.C,R2*%
X160250000Y-63590000D03*
X160250000Y-64610000D03*
%TD*%
D32*
%TO.C,R6*%
X163490000Y-68950000D03*
X164510000Y-68950000D03*
%TD*%
D33*
%TO.C,J5*%
X160450000Y-71750000D03*
X160450000Y-72750000D03*
X160450000Y-73750000D03*
X160450000Y-74750000D03*
D34*
X164325000Y-70450000D03*
X164325000Y-76050000D03*
%TD*%
D21*
%TO.C,C6*%
X147350000Y-59980000D03*
X147350000Y-59020000D03*
%TD*%
D22*
%TO.C,R3*%
X159050000Y-63590000D03*
X159050000Y-64610000D03*
%TD*%
D35*
%TO.C,SW16*%
X155300000Y-73925000D03*
X151900000Y-73925000D03*
%TD*%
D32*
%TO.C,R4*%
X157240000Y-68650000D03*
X158260000Y-68650000D03*
%TD*%
D25*
%TO.C,C9*%
X144520000Y-65350000D03*
X145480000Y-65350000D03*
%TD*%
D27*
%TO.C,R7*%
X144010000Y-69000000D03*
X142990000Y-69000000D03*
%TD*%
D19*
%TO.C,RN1*%
X198450000Y-71850000D03*
D20*
X198950000Y-71850000D03*
X199450000Y-71850000D03*
D19*
X199950000Y-71850000D03*
X199950000Y-72850000D03*
D20*
X199450000Y-72850000D03*
X198950000Y-72850000D03*
D19*
X198450000Y-72850000D03*
%TD*%
D33*
%TO.C,J6*%
X146850000Y-74750000D03*
X146850000Y-73750000D03*
X146850000Y-72750000D03*
X146850000Y-71750000D03*
D34*
X142975000Y-76050000D03*
X142975000Y-70450000D03*
%TD*%
D26*
%TO.C,C4*%
X158380000Y-66200000D03*
X157420000Y-66200000D03*
%TD*%
D23*
%TO.C,U1*%
X203190800Y-59755000D03*
X203190800Y-61025000D03*
X203190800Y-62295000D03*
X203190800Y-63565000D03*
X203190800Y-64835000D03*
X203190800Y-66105000D03*
X203190800Y-67375000D03*
X203190800Y-68645000D03*
X198009200Y-68645000D03*
X198009200Y-67375000D03*
X198009200Y-66105000D03*
X198009200Y-64835000D03*
X198009200Y-63565000D03*
X198009200Y-62295000D03*
X198009200Y-61025000D03*
X198009200Y-59755000D03*
%TD*%
M02*
