M48
; DRILL file {KiCad (6.0.7)} date Sun Sep 25 11:51:48 2022
; FORMAT={-:-/ absolute / metric / decimal}
; #@! TF.CreationDate,2022-09-25T11:51:48-07:00
; #@! TF.GenerationSoftware,Kicad,Pcbnew,(6.0.7)
; #@! TF.FileFunction,MixedPlating,1,2
FMAT,2
METRIC
; #@! TA.AperFunction,Plated,PTH,ViaDrill
T1C0.400
; #@! TA.AperFunction,Plated,PTH,ComponentDrill
T2C0.813
; #@! TA.AperFunction,Plated,PTH,ComponentDrill
T3C1.470
; #@! TA.AperFunction,Plated,PTH,ComponentDrill
T4C2.200
; #@! TA.AperFunction,NonPlated,NPTH,ComponentDrill
T5C0.610
; #@! TA.AperFunction,NonPlated,NPTH,ComponentDrill
T6C1.750
; #@! TA.AperFunction,NonPlated,NPTH,ComponentDrill
T7C2.200
; #@! TA.AperFunction,NonPlated,NPTH,ComponentDrill
T8C3.988
%
G90
G05
T1
X139.9Y-73.9
X141.85Y-62.6
X143.2Y-59.6
X144.55Y-59.0
X144.6Y-70.45
X144.6Y-72.55
X144.9Y-69.0
X145.45Y-66.25
X145.8Y-68.35
X146.75Y-57.0
X147.3Y-58.1
X147.35Y-66.6
X148.35Y-72.75
X149.4Y-66.65
X150.3Y-58.924
X150.6Y-70.8
X151.1Y-64.55
X151.35Y-59.0
X151.85Y-67.65
X152.074Y-64.592
X152.6Y-62.9
X152.7Y-67.3
X152.9Y-63.95
X153.5Y-70.55
X153.6Y-62.5
X154.0Y-56.0
X154.334Y-61.822
X154.4Y-70.45
X154.4Y-72.55
X155.176Y-61.283
X155.75Y-64.05
X156.8Y-70.45
X156.8Y-72.55
X157.4Y-67.15
X158.95Y-74.75
X159.05Y-58.2
X159.05Y-59.2
X159.05Y-60.2
X159.05Y-61.199
X161.35Y-64.05
X162.55Y-68.95
X163.85Y-67.15
X172.2Y-64.275
X172.2Y-66.575
X173.1Y-64.275
X173.1Y-66.575
X174.0Y-64.275
X174.0Y-66.575
X174.9Y-64.275
X174.9Y-66.575
X179.6Y-64.3
X179.6Y-66.6
X180.5Y-64.3
X180.5Y-66.6
X181.4Y-64.3
X181.4Y-66.6
X182.3Y-64.3
X182.3Y-66.6
X189.0Y-58.6
X190.6Y-56.4
X190.9Y-60.5
X193.1Y-72.0
X194.1Y-70.1
X194.1Y-72.0
X196.5Y-61.05
X196.5Y-62.3
X196.5Y-63.6
X196.5Y-68.65
X196.55Y-64.85
X196.55Y-66.15
X204.197Y-58.86
X204.594Y-63.054
X204.642Y-61.438
X204.648Y-66.275
X204.67Y-64.72
X204.675Y-59.738
X205.183Y-63.862
X205.183Y-60.598
X205.205Y-62.264
X205.217Y-67.096
X205.286Y-65.506
X205.6Y-72.0
X206.45Y-71.25
X206.45Y-73.85
X211.859Y-69.55
X213.35Y-59.8
X213.35Y-61.1
X213.35Y-62.35
X213.35Y-63.6
X213.35Y-64.85
X213.35Y-66.15
X214.7Y-68.9
X216.4Y-75.9
T2
X194.925Y-58.215
X194.925Y-60.755
X194.925Y-63.295
X194.925Y-65.835
T3
X144.84Y-102.11
X144.84Y-121.16
X144.84Y-140.21
X144.84Y-83.06
X146.15Y-100.65
X146.15Y-119.7
X146.15Y-138.75
X146.15Y-81.6
X151.15Y-100.15
X151.15Y-119.2
X151.15Y-138.25
X151.15Y-81.1
X151.19Y-99.57
X151.19Y-118.62
X151.19Y-137.67
X151.19Y-80.52
X163.89Y-121.16
X163.89Y-140.21
X163.89Y-83.06
X163.89Y-102.11
X165.2Y-119.7
X165.2Y-138.75
X165.2Y-81.6
X165.2Y-100.65
X170.2Y-119.2
X170.2Y-138.25
X170.2Y-81.1
X170.2Y-100.15
X170.24Y-118.62
X170.24Y-137.67
X170.24Y-80.52
X170.24Y-99.57
X182.92Y-140.21
X182.94Y-83.06
X182.94Y-102.11
X182.94Y-121.16
X184.23Y-138.75
X184.25Y-81.6
X184.25Y-100.65
X184.25Y-119.7
X189.23Y-138.25
X189.25Y-81.1
X189.25Y-100.15
X189.25Y-119.2
X189.27Y-137.67
X189.29Y-80.52
X189.29Y-99.57
X189.29Y-118.62
X201.99Y-83.06
X201.99Y-102.11
X201.99Y-121.16
X201.99Y-140.21
X203.3Y-81.6
X203.3Y-100.65
X203.3Y-119.7
X203.3Y-138.75
X208.3Y-81.1
X208.3Y-100.15
X208.3Y-119.2
X208.3Y-138.25
X208.34Y-80.52
X208.34Y-99.57
X208.34Y-118.62
X208.34Y-137.67
T4
X170.225Y-56.625
X170.225Y-69.125
X184.225Y-56.625
X184.225Y-69.125
T5
X137.65Y-58.1
X137.65Y-60.6
X137.65Y-70.14
X137.65Y-72.64
X216.85Y-58.1
X216.85Y-60.6
X216.85Y-70.16
X216.85Y-72.66
T6
X143.57Y-104.65
X143.57Y-123.7
X143.57Y-142.75
X143.57Y-85.6
X153.73Y-104.65
X153.73Y-123.7
X153.73Y-142.75
X153.73Y-85.6
X162.62Y-123.7
X162.62Y-142.75
X162.62Y-85.6
X162.62Y-104.65
X172.78Y-123.7
X172.78Y-142.75
X172.78Y-85.6
X172.78Y-104.65
X181.65Y-142.75
X181.67Y-85.6
X181.67Y-104.65
X181.67Y-123.7
X191.81Y-142.75
X191.83Y-85.6
X191.83Y-104.65
X191.83Y-123.7
X200.72Y-85.6
X200.72Y-104.65
X200.72Y-123.7
X200.72Y-142.75
X210.88Y-85.6
X210.88Y-104.65
X210.88Y-123.7
X210.88Y-142.75
T7
X158.18Y-95.145
X158.18Y-133.215
X196.275Y-95.125
X196.275Y-133.2
T8
X148.65Y-104.65
X148.65Y-123.7
X148.65Y-142.75
X148.65Y-85.6
X167.7Y-123.7
X167.7Y-142.75
X167.7Y-85.6
X167.7Y-104.65
X186.73Y-142.75
X186.75Y-85.6
X186.75Y-104.65
X186.75Y-123.7
X205.8Y-85.6
X205.8Y-104.65
X205.8Y-123.7
X205.8Y-142.75
T0
M30
