%TF.GenerationSoftware,KiCad,Pcbnew,(6.0.7)*%
%TF.CreationDate,2022-09-25T11:51:51-07:00*%
%TF.ProjectId,ModularKeyboard_Main,4d6f6475-6c61-4724-9b65-79626f617264,0.1*%
%TF.SameCoordinates,Original*%
%TF.FileFunction,Paste,Bot*%
%TF.FilePolarity,Positive*%
%FSLAX46Y46*%
G04 Gerber Fmt 4.6, Leading zero omitted, Abs format (unit mm)*
G04 Created by KiCad (PCBNEW (6.0.7)) date 2022-09-25 11:51:51*
%MOMM*%
%LPD*%
G01*
G04 APERTURE LIST*
G04 Aperture macros list*
%AMRoundRect*
0 Rectangle with rounded corners*
0 $1 Rounding radius*
0 $2 $3 $4 $5 $6 $7 $8 $9 X,Y pos of 4 corners*
0 Add a 4 corners polygon primitive as box body*
4,1,4,$2,$3,$4,$5,$6,$7,$8,$9,$2,$3,0*
0 Add four circle primitives for the rounded corners*
1,1,$1+$1,$2,$3*
1,1,$1+$1,$4,$5*
1,1,$1+$1,$6,$7*
1,1,$1+$1,$8,$9*
0 Add four rect primitives between the rounded corners*
20,1,$1+$1,$2,$3,$4,$5,0*
20,1,$1+$1,$4,$5,$6,$7,0*
20,1,$1+$1,$6,$7,$8,$9,0*
20,1,$1+$1,$8,$9,$2,$3,0*%
G04 Aperture macros list end*
%ADD10R,0.400000X0.500000*%
%ADD11R,0.300000X0.500000*%
%ADD12RoundRect,0.140000X0.170000X-0.140000X0.170000X0.140000X-0.170000X0.140000X-0.170000X-0.140000X0*%
%ADD13RoundRect,0.135000X-0.185000X0.135000X-0.185000X-0.135000X0.185000X-0.135000X0.185000X0.135000X0*%
%ADD14R,1.701800X0.533400*%
%ADD15RoundRect,0.150000X0.150000X-0.512500X0.150000X0.512500X-0.150000X0.512500X-0.150000X-0.512500X0*%
%ADD16RoundRect,0.140000X-0.140000X-0.170000X0.140000X-0.170000X0.140000X0.170000X-0.140000X0.170000X0*%
%ADD17RoundRect,0.140000X0.140000X0.170000X-0.140000X0.170000X-0.140000X-0.170000X0.140000X-0.170000X0*%
%ADD18RoundRect,0.135000X0.135000X0.185000X-0.135000X0.185000X-0.135000X-0.185000X0.135000X-0.185000X0*%
%ADD19RoundRect,0.075000X-0.662500X-0.075000X0.662500X-0.075000X0.662500X0.075000X-0.662500X0.075000X0*%
%ADD20RoundRect,0.075000X-0.075000X-0.662500X0.075000X-0.662500X0.075000X0.662500X-0.075000X0.662500X0*%
%ADD21RoundRect,0.140000X-0.170000X0.140000X-0.170000X-0.140000X0.170000X-0.140000X0.170000X0.140000X0*%
%ADD22R,1.200000X1.400000*%
%ADD23RoundRect,0.135000X-0.135000X-0.185000X0.135000X-0.185000X0.135000X0.185000X-0.135000X0.185000X0*%
%ADD24R,1.550000X0.600000*%
%ADD25R,1.800000X1.200000*%
%ADD26R,0.900000X1.700000*%
G04 APERTURE END LIST*
D10*
%TO.C,RN4*%
X210050000Y-71850000D03*
D11*
X210550000Y-71850000D03*
X211050000Y-71850000D03*
D10*
X211550000Y-71850000D03*
X211550000Y-72850000D03*
D11*
X211050000Y-72850000D03*
X210550000Y-72850000D03*
D10*
X210050000Y-72850000D03*
%TD*%
D12*
%TO.C,C7*%
X145750000Y-57930000D03*
X145750000Y-56970000D03*
%TD*%
D13*
%TO.C,R5*%
X147350000Y-60940000D03*
X147350000Y-61960000D03*
%TD*%
D14*
%TO.C,U3*%
X211849330Y-59755000D03*
X211849330Y-61025000D03*
X211849330Y-62295000D03*
X211849330Y-63565000D03*
X211849330Y-64835000D03*
X211849330Y-66105000D03*
X211849330Y-67375000D03*
X211849330Y-68645000D03*
X206667730Y-68645000D03*
X206667730Y-67375000D03*
X206667730Y-66105000D03*
X206667730Y-64835000D03*
X206667730Y-63565000D03*
X206667730Y-62295000D03*
X206667730Y-61025000D03*
X206667730Y-59755000D03*
%TD*%
D15*
%TO.C,U4*%
X164800000Y-65887500D03*
X163850000Y-65887500D03*
X162900000Y-65887500D03*
X162900000Y-63612500D03*
X164800000Y-63612500D03*
%TD*%
D16*
%TO.C,C8*%
X151620000Y-70550000D03*
X152580000Y-70550000D03*
%TD*%
D17*
%TO.C,C3*%
X155830000Y-56000000D03*
X154870000Y-56000000D03*
%TD*%
D18*
%TO.C,R1*%
X152620000Y-71600000D03*
X151600000Y-71600000D03*
%TD*%
D19*
%TO.C,U2*%
X148937500Y-64500000D03*
X148937500Y-64000000D03*
X148937500Y-63500000D03*
X148937500Y-63000000D03*
X148937500Y-62500000D03*
X148937500Y-62000000D03*
X148937500Y-61500000D03*
X148937500Y-61000000D03*
X148937500Y-60500000D03*
X148937500Y-60000000D03*
X148937500Y-59500000D03*
X148937500Y-59000000D03*
D20*
X150350000Y-57587500D03*
X150850000Y-57587500D03*
X151350000Y-57587500D03*
X151850000Y-57587500D03*
X152350000Y-57587500D03*
X152850000Y-57587500D03*
X153350000Y-57587500D03*
X153850000Y-57587500D03*
X154350000Y-57587500D03*
X154850000Y-57587500D03*
X155350000Y-57587500D03*
X155850000Y-57587500D03*
D19*
X157262500Y-59000000D03*
X157262500Y-59500000D03*
X157262500Y-60000000D03*
X157262500Y-60500000D03*
X157262500Y-61000000D03*
X157262500Y-61500000D03*
X157262500Y-62000000D03*
X157262500Y-62500000D03*
X157262500Y-63000000D03*
X157262500Y-63500000D03*
X157262500Y-64000000D03*
X157262500Y-64500000D03*
D20*
X155850000Y-65912500D03*
X155350000Y-65912500D03*
X154850000Y-65912500D03*
X154350000Y-65912500D03*
X153850000Y-65912500D03*
X153350000Y-65912500D03*
X152850000Y-65912500D03*
X152350000Y-65912500D03*
X151850000Y-65912500D03*
X151350000Y-65912500D03*
X150850000Y-65912500D03*
X150350000Y-65912500D03*
%TD*%
D21*
%TO.C,C2*%
X148300000Y-65620000D03*
X148300000Y-66580000D03*
%TD*%
D22*
%TO.C,HSE1*%
X144200000Y-63750000D03*
X144200000Y-61550000D03*
X145900000Y-61550000D03*
X145900000Y-63750000D03*
%TD*%
D12*
%TO.C,C11*%
X161350000Y-65930000D03*
X161350000Y-64970000D03*
%TD*%
D17*
%TO.C,C10*%
X145530000Y-59950000D03*
X144570000Y-59950000D03*
%TD*%
D10*
%TO.C,RN2*%
X201150000Y-71850000D03*
D11*
X201650000Y-71850000D03*
X202150000Y-71850000D03*
D10*
X202650000Y-71850000D03*
X202650000Y-72850000D03*
D11*
X202150000Y-72850000D03*
X201650000Y-72850000D03*
D10*
X201150000Y-72850000D03*
%TD*%
D16*
%TO.C,C12*%
X163820000Y-62000000D03*
X164780000Y-62000000D03*
%TD*%
%TO.C,C5*%
X150020000Y-67650000D03*
X150980000Y-67650000D03*
%TD*%
D10*
%TO.C,RN3*%
X207350000Y-71850000D03*
D11*
X207850000Y-71850000D03*
X208350000Y-71850000D03*
D10*
X208850000Y-71850000D03*
X208850000Y-72850000D03*
D11*
X208350000Y-72850000D03*
X207850000Y-72850000D03*
D10*
X207350000Y-72850000D03*
%TD*%
D17*
%TO.C,C1*%
X147680000Y-68350000D03*
X146720000Y-68350000D03*
%TD*%
D13*
%TO.C,R2*%
X160250000Y-63590000D03*
X160250000Y-64610000D03*
%TD*%
D23*
%TO.C,R6*%
X163490000Y-68950000D03*
X164510000Y-68950000D03*
%TD*%
D24*
%TO.C,J5*%
X160450000Y-71750000D03*
X160450000Y-72750000D03*
X160450000Y-73750000D03*
X160450000Y-74750000D03*
D25*
X164325000Y-70450000D03*
X164325000Y-76050000D03*
%TD*%
D12*
%TO.C,C6*%
X147350000Y-59980000D03*
X147350000Y-59020000D03*
%TD*%
D13*
%TO.C,R3*%
X159050000Y-63590000D03*
X159050000Y-64610000D03*
%TD*%
D26*
%TO.C,SW16*%
X155300000Y-73925000D03*
X151900000Y-73925000D03*
%TD*%
D23*
%TO.C,R4*%
X157240000Y-68650000D03*
X158260000Y-68650000D03*
%TD*%
D16*
%TO.C,C9*%
X144520000Y-65350000D03*
X145480000Y-65350000D03*
%TD*%
D18*
%TO.C,R7*%
X144010000Y-69000000D03*
X142990000Y-69000000D03*
%TD*%
D10*
%TO.C,RN1*%
X198450000Y-71850000D03*
D11*
X198950000Y-71850000D03*
X199450000Y-71850000D03*
D10*
X199950000Y-71850000D03*
X199950000Y-72850000D03*
D11*
X199450000Y-72850000D03*
X198950000Y-72850000D03*
D10*
X198450000Y-72850000D03*
%TD*%
D24*
%TO.C,J6*%
X146850000Y-74750000D03*
X146850000Y-73750000D03*
X146850000Y-72750000D03*
X146850000Y-71750000D03*
D25*
X142975000Y-76050000D03*
X142975000Y-70450000D03*
%TD*%
D17*
%TO.C,C4*%
X158380000Y-66200000D03*
X157420000Y-66200000D03*
%TD*%
D14*
%TO.C,U1*%
X203190800Y-59755000D03*
X203190800Y-61025000D03*
X203190800Y-62295000D03*
X203190800Y-63565000D03*
X203190800Y-64835000D03*
X203190800Y-66105000D03*
X203190800Y-67375000D03*
X203190800Y-68645000D03*
X198009200Y-68645000D03*
X198009200Y-67375000D03*
X198009200Y-66105000D03*
X198009200Y-64835000D03*
X198009200Y-63565000D03*
X198009200Y-62295000D03*
X198009200Y-61025000D03*
X198009200Y-59755000D03*
%TD*%
M02*
